<?xml version="1.0" standalone="no"?>
<svg xmlns:xlink="http://www.w3.org/1999/xlink" xmlns="http://www.w3.org/2000/svg" height="80" width="56"><g transform="translate(-69,-66)"><line x1="69" y1="68" x2="70" y2="126" stroke="rgba(0,0,0,1)" stroke-width="1" stroke-dasharray="0"/><line x1="72" y1="67" x2="120" y2="99" stroke="rgba(0,0,0,1)" stroke-width="1" stroke-dasharray="0"/><line x1="93" y1="117" x2="111" y2="145" stroke="rgba(0,0,0,1)" stroke-width="1" stroke-dasharray="0"/><line x1="111" y1="145" x2="124" y2="138" stroke="rgba(0,0,0,1)" stroke-width="1" stroke-dasharray="0"/><line x1="124" y1="138" x2="105" y2="108" stroke="rgba(0,0,0,1)" stroke-width="1" stroke-dasharray="0"/><line x1="105" y1="108" x2="120" y2="97" stroke="rgba(0,0,0,1)" stroke-width="1" stroke-dasharray="0"/><line x1="69" y1="123" x2="93" y2="114" stroke="rgba(0,0,0,1)" stroke-width="1" stroke-dasharray="0"/><polyline points="71,66 71,66 71,66 70,66 70,66 70,66 70,66 70,66 70,66 69,66 69,66 69,66 69,66 69,67 69,67 69,67 69,68 69,68 69,68 69,68 69,68 69,68 69,68 69,68 69,67 69,67 69,67 69,67 70,67 70,67 70,67 70,67 70,67 71,67 71,67 71,67 71,66 71,66 71,66 71,66" stroke="rgba(0,0,0,1)" stroke-width="1" stroke-dasharray="0"/></g></svg>